# xmcd
#
# Track frame offsets: 
#        150
#        16357
#        32135
#        48130
#        69477
#        86599
#        102927
#        118621
#
# Disc length: 1798 seconds
#
# Revision: 0
# Processed by: cddbd v1.5.2PL0 Copyright (c) Steve Scherf et al.
# Submitted via: ExactAudioCopy v0.99pb4
#
DISCID=5e070408
DTITLE=Dirk Guerrier - Hold On
DYEAR=2000
DGENRE=R&B
TTITLE0=Hold On
TTITLE1=Like Fire
TTITLE2=Just As I Am
TTITLE3=I'll Do Whatever It Takes
TTITLE4=Be Ready
TTITLE5=Lead Me
TTITLE6=Fill My Cup Load
TTITLE7=You Can Do It
EXTD=
EXTT0=
EXTT1=
EXTT2=
EXTT3=
EXTT4=
EXTT5=
EXTT6=
EXTT7=
PLAYORDER=
